PathFileType	4	(X/Y/Z)	D:\Vicon data\Senior Design EMG regression\Subject 2- Oliver\Session 3\oliver- static trial.trc
DataRate	CameraRate	NumFrames	NumMarkers	Units	OrigDataRate	OrigDataStartFrame	OrigNumFrames
100.0	100.0	4	60	mm	100.0	283	565	
Frame#	Time	HEAD			C7			CLAV			STUR			LSHO			LHAR2			LHME			LRAH			LRAD			LULN			LMCM			RSHO			RHAR2			RHME			RRAH			RRAD			RULN			RMCM			LASI			RASI			LPSI			RPSI			LLAT			LLFC			LKNE			LLAN			LHEE			LTOE			RLAT			RLFC			RKNE			RLAN			RHEE			RTOE			RSMT			RMAN			LSMT			LMAN			RSAT1			RSAT			RMFC			LSAT1			LSAT			LMFC			BARB			RHAR1			RHGT			RHHB			RHHF			RHLE			RMCR			RMCA			RMCI			LHHF			LHHB			LHGT			LHAR1			LHLE			LMCR			LMCI			
		X1	Y1	Z1	X2	Y2	Z2	X3	Y3	Z3	X4	Y4	Z4	X5	Y5	Z5	X6	Y6	Z6	X7	Y7	Z7	X8	Y8	Z8	X9	Y9	Z9	X10	Y10	Z10	X11	Y11	Z11	X12	Y12	Z12	X13	Y13	Z13	X14	Y14	Z14	X15	Y15	Z15	X16	Y16	Z16	X17	Y17	Z17	X18	Y18	Z18	X19	Y19	Z19	X20	Y20	Z20	X21	Y21	Z21	X22	Y22	Z22	X23	Y23	Z23	X24	Y24	Z24	X25	Y25	Z25	X26	Y26	Z26	X27	Y27	Z27	X28	Y28	Z28	X29	Y29	Z29	X30	Y30	Z30	X31	Y31	Z31	X32	Y32	Z32	X33	Y33	Z33	X34	Y34	Z34	X35	Y35	Z35	X36	Y36	Z36	X37	Y37	Z37	X38	Y38	Z38	X39	Y39	Z39	X40	Y40	Z40	X41	Y41	Z41	X42	Y42	Z42	X43	Y43	Z43	X44	Y44	Z44	X45	Y45	Z45	X46	Y46	Z46	X47	Y47	Z47	X48	Y48	Z48	X49	Y49	Z49	X50	Y50	Z50	X51	Y51	Z51	X52	Y52	Z52	X53	Y53	Z53	X54	Y54	Z54	X55	Y55	Z55	X56	Y56	Z56	X57	Y57	Z57	X58	Y58	Z58	X59	Y59	Z59	X60	Y60	Z60	
283	2.82	-1.6804816	1660.0857	-410.14197	3.3495171	1486.1429	-192.66254	6.1265302	1419.1619	-328.61996	5.903358	1217.1591	-383.17654	-153.504	1477.2238	-255.03308	-319.92886	1428.0747	-307.5657	-405.55222	1301.3416	-341.27664	-375.40515	1380.9515	-383.85361	-367.00574	1359.4725	-570.51154	-443.22659	1353.5594	-572.46967	-390.50555	1367.1433	-658.32159	165.14862	1460.9229	-232.17496	313.51065	1412.5118	-284.63925	423.19611	1382.7208	-294.44296	403.6597	1376.5411	-338.03445	418.02188	1337.7017	-535.96326	488.75272	1358.0723	-528.44958	458.43787	1343.0277	-628.24133	-82.381569	925.21796	-393.59183	134.07463	942.12665	-385.91815	-16.290993	990.7926	-164.9416	61.464664	990.33514	-163.27156	-131.15639	581.95337	-326.58978	-117.5112	489.96982	-309.08527	-72.765663	435.4147	-337.23871	-125.84327	93.515808	-225.70047	-83.016739	73.66626	-163.18132	-90.420303	48.675701	-427.21198	214.76093	725.79358	-292.92999	140.90463	486.61929	-305.96866	99.262192	449.55109	-325.02011	150.13239	88.466835	-220.01564	104.77722	71.777512	-165.23492	113.66354	54.367924	-422.51135	166.8011	53.8363	-360.32019	67.331009	98.627151	-238.83794	-148.54111	54.574013	-346.09708	-39.018303	95.069687	-241.46948	156.82355	813.93683	-389.48541	118.89592	605.72626	-368.53409	43.777756	470.09256	-284.57593	-77.410889	791.34583	-417.64194	-85.196823	637.95166	-390.89035	-14.681702	472.05325	-308.42786	55.926159	1234.8018	-143.52557	378.81329	1376.4694	-240.99707	272.61893	1431.1364	-227.33075	183.44089	1374.8069	-167.31058	174.6965	1423.6481	-316.8851				481.89984	1340.1567	-618.24835	496.77112	1344.8134	-586.71497	434.61411	1344.3564	-628.12817	-153.67732	1424.9337	-337.58224	-193.3721	1414.3129	-210.62726	-258.9437	1463.1082	-277.90549	-376.70169	1396.366	-268.36121	-417.73007	1403.9106	-325.87668	-415.80075	1362.0251	-657.58667	-361.00543	1363.0869	-657.98608
284	2.83	-1.661719	1659.9452	-410.30435	3.3744409	1486.129	-192.69472	6.1829233	1419.1652	-328.69183	5.9253716	1217.1534	-383.2702	-153.51958	1477.1569	-255.04681	-319.94003	1427.9592	-307.48944	-405.29181	1301.1028	-341.33749	-375.46945	1380.7821	-383.75598	-367.05411	1359.493	-570.53503	-443.32648	1353.5341	-572.40448	-390.60852	1367.1514	-658.44128	165.17873	1460.8625	-232.22522	313.56729	1412.3657	-284.63974	423.2486	1382.6193	-294.29913	403.65811	1376.282	-337.97168	418.0314	1337.3024	-535.78595	488.81546	1357.7212	-528.33246	458.49838	1342.6027	-628.008	-82.382851	925.18903	-393.62823	134.10617	942.09747	-385.95529	-16.267952	990.7749	-165.03732	61.509396	990.40448	-163.13719	-131.11685	581.93268	-326.66711	-117.51369	489.94736	-309.13391	-72.746353	435.38696	-337.24509	-125.85205	93.53717	-225.73161	-83.010841	73.635651	-163.20477	-90.419754	48.661663	-427.23627	214.7617	725.745	-293.01993	140.91707	486.59686	-306.03052	99.279152	449.5032	-325.08405	150.13466	88.436165	-220.03513	104.76626	71.739716	-165.24503	113.63338	54.326668	-422.50647	166.79945	53.818722	-360.3407	67.317535	98.629486	-238.88742	-148.53636	54.531967	-346.09589	-39.026031	95.041611	-241.45001	156.82825	813.91418	-389.5452	118.88208	605.68066	-368.57111	43.789017	470.05161	-284.64359	-77.354111	791.31506	-417.66867	-85.154518	637.92682	-390.93048	-14.662737	472.04044	-308.48932	55.887882	1234.7628	-143.60982	378.86014	1376.2102	-241.05779	272.65341	1431.0405	-227.34012	183.44081	1374.757	-167.35878	174.70692	1423.5924	-316.88925				481.68448	1339.6102	-618.04071	496.83505	1344.375	-586.60675	434.65625	1343.851	-628.07257	-153.68069	1424.9288	-337.57422	-193.36302	1414.2385	-210.65994	-258.97287	1463.0323	-277.84543	-376.66339	1396.2036	-268.35913	-417.68808	1403.7577	-325.81778	-416.01526	1361.9646	-657.26184	-361.12418	1363.1001	-657.979
285	2.84	-1.6540078	1659.9039	-410.47806	3.4065425	1486.145	-192.74083	6.2086482	1419.2305	-328.71234	5.9585323	1217.2319	-383.38699	-153.50525	1477.1884	-255.03381	-319.95975	1427.9128	-307.39517	-405.39456	1301.0024	-341.3309	-375.47089	1380.856	-383.75897	-367.17163	1359.5615	-570.50006	-443.41547	1353.5328	-572.36176	-390.72092	1367.2048	-658.34418	165.21684	1460.8652	-232.22641	313.59332	1412.2695	-284.60641	423.26614	1382.451	-294.21857	403.69681	1376.1155	-337.87622	418.46399	1336.6464	-535.2843	488.89478	1357.4327	-528.216	458.55634	1342.3085	-627.86554	-82.397255	925.23346	-393.64755	134.09439	942.13098	-385.98254	-16.240149	990.79584	-165.09532	61.530518	990.44257	-163.166	-131.10661	581.99225	-326.72308	-117.51937	489.98911	-309.13873	-72.777122	435.383	-337.26837	-125.8382	93.560265	-225.68555	-83.014465	73.674316	-163.21611	-90.447029	48.676533	-427.21234	214.78734	725.77551	-293.07065	140.91162	486.65271	-306.06979	99.294533	449.55801	-325.11679	150.14392	88.498787	-220.01456	104.76248	71.776962	-165.23335	113.64642	54.351536	-422.50455	166.79645	53.853985	-360.34155	67.296837	98.667229	-238.88077	-148.55409	54.56461	-346.06955	-39.017445	95.088219	-241.44499	156.79285	813.95276	-389.56918	118.89243	605.74756	-368.60501	43.808891	470.07819	-284.68448	-77.355812	791.36835	-417.70999	-85.129379	637.96881	-390.9762	-14.684221	472.0437	-308.47104	55.867477	1234.7544	-143.73059	378.83212	1376.1611	-240.92015	272.68964	1430.9991	-227.3437	183.46468	1374.7076	-167.38492	174.7952	1423.5824	-316.94458				481.74359	1339.2843	-617.9447	496.90784	1344.0616	-586.49915	434.64291	1343.5365	-627.91083	-153.68849	1425.0182	-337.62204	-193.33398	1414.201	-210.65352	-258.97702	1462.9885	-277.76041	-376.63721	1396.0879	-268.27899	-417.7229	1403.6855	-325.74915	-416.03961	1362.031	-657.54388	-361.23694	1363.1912	-657.97504
286	2.85	-1.6516111	1659.8336	-410.59955	3.4233797	1486.1765	-192.79019	6.2098012	1419.2749	-328.74631	6.0138016	1217.2777	-383.46954	-153.51749	1477.161	-255.02736	-319.99121	1427.8868	-307.32608	-404.42529	1300.9106	-341.66013	-375.47058	1380.9285	-383.79974	-367.28931	1359.6221	-570.52399	-443.48984	1353.5347	-572.34015	-390.88821	1367.157	-658.43353	165.24873	1460.8517	-232.25903	313.6315	1412.1636	-284.60571	423.29739	1382.3004	-294.13287	403.73157	1375.9397	-337.78931	418.50775	1336.4016	-535.18866	488.94571	1357.1355	-528.14008	458.64804	1341.9857	-627.70575	-82.378212	925.2522	-393.69235	134.08737	942.13898	-386.03766	-16.237942	990.84351	-165.15414	61.523697	990.43951	-163.26743	-131.10228	581.96185	-326.73801	-117.48521	489.96783	-309.17957	-72.757179	435.39105	-337.29208	-125.82774	93.587997	-225.71216	-83.024887	73.695099	-163.17401	-90.419304	48.671982	-427.21173	214.78888	725.7937	-293.08435	140.91991	486.65329	-306.08917	99.267769	449.55634	-325.1326	150.12045	88.489265	-220.01761	104.76485	71.781113	-165.22276	113.6384	54.355568	-422.47849	166.77965	53.852562	-360.32465	67.302795	98.645798	-238.83099	-148.56398	54.594086	-346.07596	-38.978073	95.10994	-241.44832	156.80811	813.95709	-389.62967	118.87932	605.74878	-368.60831	43.785694	470.07385	-284.70761	-77.337303	791.38654	-417.73691	-85.140236	637.97388	-391.01718	-14.69244	472.08231	-308.49005	55.848045	1234.7483	-143.78937	378.86102	1375.9834	-240.92487	272.7121	1430.9249	-227.32462	183.4332	1374.6467	-167.43259	174.84442	1423.5912	-316.97696				481.80035	1338.9735	-617.85114	497.17178	1343.9094	-586.45892	434.82159	1343.2217	-627.89398	-153.71193	1425.0692	-337.64682	-193.30417	1414.162	-210.68184	-258.99292	1462.9453	-277.70889	-376.58878	1395.9585	-268.19006	-417.72629	1403.629	-325.66476	-416.22412	1362.0914	-657.49023	-361.40448	1363.2822	-657.97888
